#!OML:ASF F:\VICON\USERDATA\INSTALL\rory3\rory3.ASF
:FULLY-SPECIFIED
:DEGREES
28
root -0.3794365224796626 18.359387914134278 -0.4663921580281478 3.002462544326017 4.351763562092804 -0.04667309667706476
lfemur 13.48952484636236 -0.6745685639815573 -28.70297170438627
ltibia 21.08049956494321
lfoot -1.6525757289265746 -10.669339530481059
ltoes -4.429324467656989
rfemur -40.08563871377627 5.769737016737686 21.14825126429198
rtibia 43.37004984480646
rfoot 18.47710982300561 -3.7910100655631798
rtoes 19.318854638396168
lowerback 15.765115639654422 -0.24646745878741383 -0.9037407575994505
upperback 0.4635745075481881 -0.9863496611083424 2.429113803067038
thorax -9.16140920565556 -0.26982168209732194 3.264634393205146
lowerneck -21.277953800084795 -3.503845700962073 -2.0573137336118474
upperneck 14.708919744601143 -2.5489136825054635 2.3600102213341287
head 7.946546236309772 -1.7963591069609868 0.47545173790154005
lclavicle -1.7356841294373407e-15 1.764814468387965e-15
lhumerus -17.044972991510654 -23.32367392067819 95.92709422224716
lradius 120.8936606129404
lwrist 33.05148789640801
lhand -24.948889514144728 3.437606007566469
lfingers 7.12502
lthumb 1.484003354399312 33.27627231415427
rclavicle -1.7257515396800013e-15 1.785877188436645e-15
rhumerus -52.07766674858836 16.509850274444005 -101.24240206278068
rradius 104.67393251214865
rwrist -13.16228206012702
rhand -15.132895147680703 39.30154839163058
rfingers 7.12502
rthumb 10.477461936389679 9.432561297581735
29
root -0.3957688370755297 18.372156898257064 -0.03566158916896356 3.568534984049593 4.8919781122303965 0.029720511369701885
lfemur 15.147536762257614 -0.809313868911659 -28.36765206208101
ltibia 18.39139352714175
lfoot 4.2998250351893885 -12.948695418955714
ltoes -5.616585519952718
rfemur -39.399769611183935 5.587291937185839 21.313576917531464
rtibia 35.480962425746156
rfoot 17.87142906571283 -3.545900334542106
rtoes 21.126611341848957
lowerback 15.838173837874715 -0.32957859829164127 -0.7227986235295603
upperback 0.32941493420638546 -0.9903769238678013 2.7179754608880446
thorax -9.190997775856674 -0.3320251937853863 3.430670458405838
lowerneck -21.54841742327075 -3.45549626872905 -2.072291756784722
upperneck 14.318021856411779 -2.259930896787029 2.2731127666888753
head 7.951342661244691 -1.9262911101274756 0.470004913439413
lclavicle -1.7356352632513802e-15 1.7647516180696343e-15
lhumerus -19.80828693974123 -23.337920166576083 97.10306983653456
lradius 120.76451595318656
lwrist 32.79414003085788
lhand -24.93799521677329 3.6080301030164135
lfingers 7.12502
lthumb 1.5010671271203662 33.46769053316602
rclavicle -1.7256894083140634e-15 1.785918435672965e-15
rhumerus -52.222115696076315 16.364203547163694 -100.66878873633087
rradius 105.64278717743917
rwrist -13.66829921216494
rhand -14.587868103766144 40.222194953383905
rfingers 7.12502
rthumb 11.358330068766017 10.463327143560866
30
root -0.4123363186249278 18.378328328364155 0.08848029980682881 4.082379078409959 5.18878217489826 -0.22942049245395513
lfemur 15.591371657705066 -1.3092372027683128 -27.714655469036675
ltibia 17.946441613265073
lfoot 10.00879115930705 -15.102663978956627
ltoes -6.498858504635831
rfemur -39.10046840251212 4.001583305512641 22.24720475649555
rtibia 34.39110049492436
rfoot 17.479021964479195 -3.3180175627927246
rtoes 15.74787627240353
lowerback 15.99487132001564 -0.35488771039855593 -0.29129977697497544
upperback 0.2296993456746257 -0.8794623357571143 2.895075196209459
thorax -9.089610556436197 -0.34805655842438366 3.551995994319894
lowerneck -21.627485933917967 -3.3302271237618752 -2.0781792910669683
upperneck 13.678815414169804 -2.0110454250376986 2.212052435209873
head 7.805126202020854 -1.911404919793549 0.5271980060685807
lclavicle -1.7356192997938861e-15 1.7646643698446133e-15
lhumerus -24.28214897424057 -22.54533775154453 98.27157994750785
lradius 120.01890042513575
lwrist 32.621825047672765
lhand -24.94118881776088 3.72264053606656
lfingers 7.12502
lthumb 1.543161352957617 33.67014985057274
rclavicle -1.7257120083486775e-15 1.7859042250484393e-15
rhumerus -52.24927182550803 16.00866091433719 -100.03819664064123
rradius 106.42430336594727
rwrist -13.834132722372997
rhand -14.655333409751655 40.256151448699434
rfingers 7.12502
rthumb 11.250725724351291 10.585718338253981
31
root -0.41721800237404594 18.403373650658615 0.7647554604769091 4.41963074169169 5.298277036293624 -0.48474760929445493
lfemur 14.92682707006031 -1.5714677105106494 -26.738733030544463
ltibia 20.697459282956764
lfoot 14.308467643609017 -14.993880502679819
ltoes -9.208427145246096
rfemur -38.60248209772002 1.9102618369953708 23.508231620538794
rtibia 37.88395878177418
rfoot 17.52153441283566 -3.045216193524053
rtoes 12.396906845128186
lowerback 16.1425962518056 -0.34280959082142237 0.15392913123213448
upperback 0.16551770814662525 -0.5998495281091953 3.071015649988043
thorax -9.06475238250463 -0.37878617118693236 3.518152837120226
lowerneck -21.759042587157467 -3.2279593124900234 -2.045174093513788
upperneck 13.361551913909954 -1.8599142103650643 2.2621773268443515
head 7.796139730336656 -1.9106272279568506 0.5142596615698286
lclavicle -1.7356121690093112e-15 1.7647450243510513e-15
lhumerus -29.563361399417296 -21.38374221161462 99.18320031630813
lradius 118.82505697403391
lwrist 32.577365214122295
lhand -24.974662633448 3.692544989703235
lfingers 7.12502
lthumb 1.5433789058048906 33.70212666717014
rclavicle -1.7257235000085056e-15 1.785894809230953e-15
rhumerus -52.0331760871713 15.542042537929664 -99.3672318030658
rradius 107.08313895676126
rwrist -13.776355670446684
rhand -14.724901077111383 40.18363235599261
rfingers 7.12502
rthumb 11.165399478282122 10.529327445482144
32
root -0.404285476710214 18.459297129614644 1.558012157824784 4.6938242444509655 5.286797875162824 -0.8064397323663914
lfemur 13.408280868147335 -1.5314994998750573 -25.5227993377177
ltibia 26.79838402802818
lfoot 12.008827917875404 -14.012238367545777
ltoes -13.461126964051248
rfemur -36.56131031479953 1.8407771200329983 24.566424050572035
rtibia 42.976266422716535
rfoot 17.35158233875147 -3.0805301855870053
rtoes 9.773389158600297
lowerback 16.27664324784451 -0.3131774430629195 0.6229565813639456
upperback 0.01780870229262299 -0.19676775355429799 3.228893471273876
thorax -9.097143827249322 -0.36210201692677024 3.4132864099268376
lowerneck -21.94900007042424 -3.2039849924800627 -2.0407466550324966
upperneck 13.660840566903586 -1.8335226932488373 2.30952622795261
head 7.881920035322865 -1.9101609125561236 0.5009016897912993
lclavicle -1.7356278979361335e-15 1.7647679920710899e-15
lhumerus -34.4099555159119 -20.0626694343974 99.72737464623029
lradius 117.38344140388666
lwrist 32.814621071408496
lhand -24.916132731930592 3.7991011108385226
lfingers 7.12502
lthumb 1.5742593047736977 33.76706720544584
rclavicle -1.7257298084111065e-15 1.785890913035947e-15
rhumerus -52.29482282510051 14.811312633926018 -98.79799013811675
rradius 107.73018362409135
rwrist -13.544834326497071
rhand -14.704692920213034 40.35555258829888
rfingers 7.12502
rthumb 11.171503627668605 10.630548501834552
33
root -0.38257133292339435 18.520222320849587 2.4887029137896937 4.898161532622904 5.233605521813531 -1.1248607296987863
lfemur 10.416482029893887 -1.444691250042568 -24.029862304748473
ltibia 35.33281986003628
lfoot 11.46169460188727 -13.18416047906214
ltoes -16.617307716360983
rfemur -33.67969993832071 1.9242594598889298 25.63817974044
rtibia 47.95218339796225
rfoot 16.612068183764862 -3.525607615423615
rtoes 5.515705255018148
lowerback 16.412256262878895 -0.2693235032995047 1.07782422739077
upperback -0.21609072523537776 0.24849926278853673 3.309461073366891
thorax -9.253743851094725 -0.32906968005396997 3.3354884898056345
lowerneck -21.846361118278804 -3.05172139295125 -2.0185924078428723
upperneck 13.84902592139267 -1.8371641094760434 2.227117476679538
head 7.855560544020796 -1.7603448682935574 0.5016080132967271
lclavicle -1.735672571269535e-15 1.7647046374362137e-15
lhumerus -38.597678347263866 -18.924250559119333 99.92953277493338
lradius 115.81021505437695
lwrist 33.484098837713226
lhand -24.809222162717404 3.8959500574360804
lfingers 7.12502
lthumb 1.625250155841604 33.78691264927545
rclavicle -1.7257114012239251e-15 1.7859032803918646e-15
rhumerus -52.46463215718443 14.188444794573211 -98.38999690664197
rradius 108.61389088920075
rwrist -13.070882276367918
rhand -14.91347476478002 40.041553823098205
rfingers 7.12502
rthumb 10.979552102624217 9.958790164574127
34
root -0.35726669801596145 18.588075599815543 3.4307519908114967 5.0293905383552175 5.264574115296451 -1.453551359736131
lfemur 5.1494590726011875 -1.1952912650525833 -22.137563465305657
ltibia 45.404670234085714
lfoot 14.31397582780231 -13.100089410323651
ltoes -20.22780058110716
rfemur -29.41168220765786 1.6527426243943728 27.372829249940956
rtibia 51.915700969487496
rfoot 16.426882365118438 -3.674289539160513
rtoes -0.10728821644494824
lowerback 16.56592025612518 -0.16211619059542093 1.5061506728685958
upperback -0.4436422240678528 0.7020386072930926 3.358261708546715
thorax -9.398817036530035 -0.2472949124546031 3.138232294065895
lowerneck -21.800409636601955 -2.9342613757193208 -2.008714847908705
upperneck 13.980253771604973 -1.9072351483472816 2.2394910253269007
head 7.835312027875623 -1.6177075672955428 0.5130351740050039
lclavicle -1.7357247922990155e-15 1.764705742051881e-15
lhumerus -41.476128009714756 -17.540231230893625 99.74845627747592
lradius 114.20127539411033
lwrist 34.346789064611045
lhand -24.811348652928608 3.9681382437286237
lfingers 7.12502
lthumb 1.6436350622404896 33.89277956850825
rclavicle -1.7257226189654899e-15 1.785894083632516e-15
rhumerus -52.30957502697404 13.773934529419549 -98.1882233212269
rradius 109.83089266800205
rwrist -12.84903182071003
rhand -15.18915472678201 39.9641277367462
rfingers 7.12502
rthumb 10.808137955607386 10.031091220070024
